<svg width="21" height="24" viewBox="0 0 21 24" fill="none" xmlns="http://www.w3.org/2000/svg">
<path d="M17.2045 12.7632C17.2166 11.8433 17.4669 10.9413 17.9321 10.1412C18.3972 9.34103 19.0621 8.66878 19.8648 8.18695C19.3548 7.47587 18.6821 6.89069 17.9 6.47787C17.1178 6.06505 16.2479 5.83597 15.3592 5.80883C13.4636 5.61456 11.6258 6.91632 10.6598 6.91632C9.67508 6.91632 8.18777 5.82812 6.58619 5.86029C5.55024 5.89297 4.54062 6.18708 3.65571 6.71398C2.7708 7.24088 2.04077 7.98259 1.53676 8.86685C-0.646507 12.5574 0.982015 17.9812 3.0734 20.9643C4.11977 22.425 5.34267 24.0567 6.94281 23.9989C8.50865 23.9355 9.09346 23.024 10.9836 23.024C12.8561 23.024 13.4048 23.9989 15.0374 23.9621C16.7176 23.9355 17.7762 22.4948 18.7859 21.0203C19.5377 19.9794 20.1162 18.8291 20.5 17.6118C19.5238 17.2087 18.6908 16.534 18.1048 15.6718C17.5188 14.8096 17.2056 13.798 17.2045 12.7632Z" fill="white"/>
<path d="M14.1215 3.84724C15.0377 2.7735 15.489 1.39339 15.3797 0C13.9801 0.143524 12.6872 0.796622 11.7587 1.82916C11.3047 2.33359 10.957 2.92042 10.7355 3.55611C10.514 4.19181 10.4229 4.8639 10.4676 5.53397C11.1677 5.541 11.8602 5.39286 12.4932 5.10069C13.1261 4.80852 13.6829 4.37994 14.1215 3.84724Z" fill="white"/>
</svg>
