<svg width="78" height="26" viewBox="0 0 78 26" fill="none" xmlns="http://www.w3.org/2000/svg">
<path d="M2.65078 0.277874C3.03958 0.251488 3.42973 0.307037 3.79308 0.440515C4.15644 0.573993 4.48394 0.782072 4.75197 1.04974C5.01999 1.31742 5.22186 1.63801 5.34301 1.9884C5.46416 2.33878 5.50157 2.71023 5.45255 3.07595C5.45255 4.87498 4.42443 5.9091 2.65078 5.9091H0.5V0.277874H2.65078ZM1.42482 5.11272H2.54748C2.8253 5.12843 3.10333 5.08535 3.36133 4.98662C3.61933 4.88789 3.85081 4.73599 4.03891 4.54199C4.22701 4.34799 4.367 4.11676 4.44869 3.86514C4.53039 3.61352 4.55172 3.34783 4.51115 3.08743C4.54878 2.82805 4.52528 2.56402 4.44233 2.31424C4.35939 2.06446 4.21905 1.83513 4.03138 1.64267C3.84371 1.45021 3.61334 1.29939 3.3568 1.20102C3.10026 1.10264 2.82388 1.05915 2.54748 1.07366H1.42482V5.11272Z" fill="white"/>
<path d="M6.49733 3.78309C6.46908 3.50382 6.50286 3.22204 6.59651 2.95584C6.69015 2.68963 6.84159 2.44488 7.04112 2.23727C7.24064 2.02966 7.48385 1.86378 7.75513 1.75027C8.02642 1.63676 8.31979 1.57813 8.61644 1.57812C8.91309 1.57813 9.20647 1.63676 9.47775 1.75027C9.74904 1.86378 9.99224 2.02966 10.1918 2.23727C10.3913 2.44488 10.5427 2.68963 10.6364 2.95584C10.73 3.22204 10.7638 3.50382 10.7356 3.78309C10.7643 4.06265 10.731 4.34482 10.6376 4.61145C10.5442 4.87809 10.3928 5.12329 10.1932 5.33131C9.99366 5.53932 9.75028 5.70555 9.47872 5.81931C9.20716 5.93306 8.91344 5.99183 8.61644 5.99183C8.31944 5.99183 8.02572 5.93306 7.75416 5.81931C7.48261 5.70555 7.23922 5.53932 7.03964 5.33131C6.84007 5.12329 6.68872 4.87809 6.59532 4.61145C6.50192 4.34482 6.46854 4.06265 6.49733 3.78309ZM9.82339 3.78309C9.82339 2.86192 9.38582 2.32323 8.6179 2.32323C7.84705 2.32323 7.41342 2.86192 7.41342 3.7831C7.41342 4.71165 7.84708 5.24619 8.6179 5.24619C9.38584 5.24618 9.8234 4.70795 9.8234 3.78309H9.82339Z" fill="white"/>
<path d="M16.3695 5.90786H15.4495L14.5208 2.77799H14.4506L13.5258 5.90786H12.6146L11.376 1.6582H12.2755L13.0804 4.90094H13.1467L14.0706 1.6582H14.9213L15.8452 4.90094H15.9153L16.7164 1.6582H17.6032L16.3695 5.90786Z" fill="white"/>
<path d="M18.6445 1.65848H19.4982V2.33358H19.5645C19.6769 2.09111 19.8665 1.88785 20.1069 1.75213C20.3473 1.61641 20.6264 1.555 20.9054 1.57645C21.1241 1.5609 21.3436 1.59208 21.5478 1.66767C21.752 1.74326 21.9355 1.86133 22.0849 2.01313C22.2343 2.16492 22.3456 2.34656 22.4107 2.54458C22.4758 2.7426 22.4929 2.95192 22.4608 3.15705V5.90809H21.574V3.36766C21.574 2.68473 21.2602 2.3451 20.6043 2.3451C20.4559 2.33856 20.3077 2.36245 20.1699 2.41514C20.0321 2.46783 19.908 2.54807 19.8061 2.65036C19.7042 2.75265 19.6269 2.87457 19.5795 3.00776C19.532 3.14096 19.5156 3.28227 19.5313 3.42203V5.90814H18.6445L18.6445 1.65848Z" fill="white"/>
<path d="M23.874 0H24.7608V5.9086H23.874V0Z" fill="white"/>
<path d="M25.9944 3.78122C25.9661 3.50192 25.9999 3.22013 26.0936 2.95392C26.1873 2.68771 26.3387 2.44294 26.5383 2.23533C26.7378 2.02771 26.9811 1.86183 27.2524 1.74832C27.5237 1.63481 27.8171 1.57617 28.1137 1.57617C28.4104 1.57617 28.7038 1.63481 28.9751 1.74832C29.2464 1.86183 29.4896 2.02771 29.6892 2.23533C29.8887 2.44294 30.0402 2.68771 30.1338 2.95392C30.2275 3.22013 30.2613 3.50192 30.2331 3.78122C30.2618 4.06079 30.2284 4.34296 30.135 4.60959C30.0416 4.87622 29.8902 5.12142 29.6906 5.32943C29.491 5.53744 29.2476 5.70366 28.976 5.81741C28.7045 5.93116 28.4107 5.98993 28.1137 5.98993C27.8167 5.98993 27.523 5.93116 27.2514 5.81741C26.9799 5.70366 26.7365 5.53744 26.5369 5.32943C26.3373 5.12142 26.1859 4.87622 26.0925 4.60959C25.999 4.34296 25.9656 4.06079 25.9944 3.78122ZM29.3204 3.78122C29.3204 2.86005 28.8829 2.32135 28.1149 2.32135C27.3441 2.32135 26.9105 2.86005 26.9105 3.78123C26.9105 4.70978 27.3441 5.24432 28.1149 5.24432C28.8829 5.24431 29.3204 4.70608 29.3204 3.78122H29.3204Z" fill="white"/>
<path d="M31.166 4.70799C31.166 3.94303 31.7683 3.50203 32.8373 3.43936L34.0545 3.373V3.0062C34.0545 2.55736 33.7407 2.30391 33.1346 2.30391C32.6395 2.30391 32.2965 2.4758 32.198 2.77625H31.3395C31.4301 2.04631 32.1561 1.57812 33.1755 1.57812C34.3021 1.57812 34.9374 2.10852 34.9374 3.0062V5.9098H34.0838V5.31259H34.0136C33.8712 5.52681 33.6712 5.70145 33.4341 5.81868C33.1969 5.9359 32.9312 5.99151 32.6639 5.97982C32.4752 5.99838 32.2846 5.97934 32.1042 5.92395C31.9238 5.86855 31.7577 5.77802 31.6166 5.65819C31.4754 5.53836 31.3624 5.3919 31.2848 5.22824C31.2072 5.06458 31.1668 4.88735 31.166 4.70799ZM34.0545 4.34486V3.98958L32.9572 4.05593C32.3384 4.0951 32.0577 4.29417 32.0577 4.66881C32.0577 5.05129 32.4085 5.27387 32.891 5.27387C33.0323 5.2874 33.1751 5.2739 33.3108 5.23418C33.4465 5.19445 33.5724 5.12932 33.681 5.04264C33.7895 4.95597 33.8786 4.84952 33.9427 4.72965C34.0069 4.60977 34.0449 4.47892 34.0545 4.34486Z" fill="white"/>
<path d="M36.1025 3.78194C36.1025 2.43912 36.8325 1.58845 37.9678 1.58845C38.2486 1.57621 38.5273 1.63983 38.7714 1.77185C39.0154 1.90388 39.2146 2.09886 39.3458 2.33402H39.4121V0H40.2989V5.9086H39.4491V5.23718H39.3789C39.2376 5.47075 39.0314 5.66331 38.7827 5.794C38.534 5.9247 38.2522 5.98854 37.9678 5.97863C36.8247 5.97868 36.1025 5.12799 36.1025 3.78194ZM37.0186 3.78194C37.0186 4.6833 37.4679 5.22569 38.2193 5.22569C38.9667 5.22569 39.4286 4.67548 39.4286 3.78563C39.4286 2.89994 38.9619 2.34189 38.2193 2.34189C37.4727 2.34189 37.0186 2.88795 37.0186 3.78194H37.0186Z" fill="white"/>
<path d="M43.968 3.78309C43.9398 3.50382 43.9736 3.22204 44.0672 2.95584C44.1609 2.68963 44.3123 2.44488 44.5118 2.23727C44.7113 2.02966 44.9545 1.86378 45.2258 1.75027C45.4971 1.63676 45.7905 1.57812 46.0871 1.57812C46.3838 1.57813 46.6772 1.63676 46.9485 1.75027C47.2197 1.86378 47.4629 2.02966 47.6625 2.23727C47.862 2.44488 48.0134 2.68963 48.1071 2.95584C48.2007 3.22204 48.2345 3.50382 48.2063 3.78309C48.235 4.06265 48.2017 4.34482 48.1083 4.61145C48.0149 4.87809 47.8635 5.12329 47.6639 5.33131C47.4644 5.53932 47.221 5.70555 46.9494 5.81931C46.6779 5.93306 46.3842 5.99183 46.0871 5.99183C45.7901 5.99183 45.4964 5.93306 45.2249 5.81931C44.9533 5.70555 44.7099 5.53932 44.5103 5.33131C44.3108 5.12329 44.1594 4.87809 44.066 4.61145C43.9726 4.34482 43.9392 4.06265 43.968 3.78309ZM47.2941 3.78309C47.2941 2.86192 46.8565 2.32323 46.0886 2.32323C45.3178 2.32323 44.8841 2.86192 44.8841 3.7831C44.8841 4.71165 45.3178 5.24619 46.0886 5.24619C46.8565 5.24618 47.2941 4.70795 47.2941 3.78309Z" fill="white"/>
<path d="M49.3965 1.65848H50.2502V2.33358H50.3164C50.4289 2.09111 50.6185 1.88785 50.8588 1.75213C51.0992 1.61641 51.3784 1.555 51.6574 1.57645C51.876 1.5609 52.0956 1.59208 52.2997 1.66767C52.5039 1.74326 52.6875 1.86133 52.8369 2.01313C52.9862 2.16492 53.0976 2.34656 53.1626 2.54458C53.2277 2.7426 53.2448 2.95192 53.2127 3.15705V5.90809H52.3259V3.36766C52.3259 2.68473 52.0121 2.3451 51.3563 2.3451C51.2078 2.33856 51.0596 2.36245 50.9219 2.41514C50.7841 2.46783 50.66 2.54807 50.5581 2.65036C50.4562 2.75265 50.3788 2.87457 50.3314 3.00776C50.284 3.14096 50.2676 3.28227 50.2833 3.42203V5.90814H49.3965V1.65848Z" fill="white"/>
<path d="M58.2242 0.599609V1.677H59.1978V2.38344H58.2242V4.56863C58.2242 5.01378 58.4181 5.2087 58.8596 5.2087C58.9726 5.20836 59.0855 5.2019 59.1978 5.18935V5.88794C59.0385 5.91489 58.8771 5.92922 58.7154 5.9308C57.7291 5.9308 57.3364 5.60269 57.3364 4.78336V2.3834H56.623V1.67696H57.3364V0.599609H58.2242Z" fill="white"/>
<path d="M60.4082 0H61.2872V2.34188H61.3574C61.4753 2.09714 61.6701 1.89273 61.9153 1.75651C62.1605 1.62028 62.4441 1.55885 62.7275 1.58061C62.945 1.56941 63.1625 1.60376 63.3643 1.68118C63.5662 1.75861 63.7475 1.87722 63.8953 2.02854C64.0431 2.17985 64.1538 2.36016 64.2194 2.55659C64.2851 2.75302 64.3041 2.96072 64.2751 3.1649V5.90861H63.3874V3.3718C63.3874 2.69301 63.0531 2.34924 62.4265 2.34924C62.2741 2.33742 62.1208 2.35723 61.9773 2.4073C61.8338 2.45737 61.7036 2.53648 61.5959 2.63911C61.4881 2.74173 61.4053 2.86538 61.3534 3.00141C61.3014 3.13744 61.2815 3.28256 61.2951 3.42663V5.90859H60.4082L60.4082 0Z" fill="white"/>
<path d="M69.4463 4.76049C69.3258 5.14888 69.0648 5.48484 68.7088 5.7096C68.3529 5.93435 67.9247 6.03359 67.4992 5.98994C67.2032 5.99733 66.909 5.94371 66.637 5.83279C66.3651 5.72187 66.1219 5.55632 65.9244 5.34762C65.7269 5.13892 65.5798 4.89208 65.4933 4.62422C65.4068 4.35636 65.383 4.07391 65.4235 3.79646C65.384 3.51816 65.4083 3.2351 65.4946 2.96644C65.5809 2.69778 65.7272 2.44979 65.9237 2.23926C66.1202 2.02874 66.3622 1.86059 66.6333 1.7462C66.9044 1.63181 67.1984 1.57385 67.4953 1.57624C68.7456 1.57624 69.4999 2.3841 69.4999 3.71856V4.01121H66.3268V4.05821C66.313 4.21416 66.3337 4.37114 66.3877 4.51907C66.4417 4.667 66.5278 4.80263 66.6405 4.91726C66.7532 5.03188 66.8899 5.12297 67.042 5.18469C67.1941 5.24641 67.3581 5.27739 67.5236 5.27565C67.7357 5.29974 67.9506 5.26361 68.141 5.17187C68.3313 5.08014 68.4886 4.93693 68.5926 4.76046L69.4463 4.76049ZM66.3268 3.39094H68.5965C68.6077 3.24831 68.5872 3.10505 68.5363 2.97036C68.4855 2.83567 68.4054 2.71253 68.3012 2.60885C68.1971 2.50517 68.0711 2.42325 67.9315 2.36835C67.7918 2.31344 67.6416 2.28677 67.4904 2.29005C67.337 2.28823 67.1848 2.31546 67.0427 2.37015C66.9007 2.42483 66.7716 2.50586 66.6632 2.60846C66.5547 2.71106 66.4691 2.83315 66.4113 2.96754C66.3536 3.10193 66.3248 3.24589 66.3268 3.39094H66.3268Z" fill="white"/>
<path d="M8.57847 19.495H3.72277L2.55668 22.9331H0.5L5.09924 10.2129H7.23607L11.8353 22.9331H9.74355L8.57847 19.495ZM4.22567 17.9084H8.07461L6.17722 12.3286H6.12412L4.22567 17.9084Z" fill="white"/>
<path d="M21.7682 18.2949C21.7682 21.1768 20.2235 23.0284 17.8923 23.0284C17.3018 23.0592 16.7145 22.9234 16.1977 22.6365C15.6809 22.3495 15.2554 21.923 14.9701 21.4059H14.9259V25.9994H13.0195V13.6573H14.8649V15.1998H14.8999C15.1984 14.6852 15.631 14.2609 16.1518 13.9722C16.6725 13.6835 17.2619 13.5411 17.8572 13.5603C20.2144 13.5603 21.7682 15.4209 21.7682 18.2949ZM19.8087 18.2949C19.8087 16.4173 18.837 15.1828 17.3543 15.1828C15.8977 15.1828 14.918 16.4433 14.918 18.2949C14.918 20.1635 15.8977 21.4149 17.3543 21.4149C18.837 21.4149 19.8087 20.1895 19.8087 18.2949Z" fill="white"/>
<path d="M31.9899 18.2949C31.9899 21.1768 30.4451 23.0284 28.114 23.0284C27.5234 23.0592 26.9362 22.9234 26.4193 22.6365C25.9025 22.3495 25.4771 21.923 25.1917 21.4058H25.1476V25.9994H23.2412V13.6573H25.0865V15.1998H25.1216C25.42 14.6851 25.8527 14.2609 26.3734 13.9722C26.8942 13.6835 27.4836 13.5411 28.0789 13.5603C30.4361 13.5603 31.9899 15.4209 31.9899 18.2949ZM30.0304 18.2949C30.0304 16.4172 29.0587 15.1828 27.576 15.1828C26.1194 15.1828 25.1396 16.4432 25.1396 18.2949C25.1396 20.1635 26.1194 21.4149 27.576 21.4149C29.0587 21.4149 30.0304 20.1895 30.0304 18.2949H30.0304Z" fill="white"/>
<path d="M38.7469 19.3881C38.8882 20.6495 40.1154 21.4778 41.7924 21.4778C43.3993 21.4778 44.5553 20.6495 44.5553 19.5121C44.5553 18.5248 43.8581 17.9336 42.2071 17.5285L40.5562 17.1313C38.217 16.5672 37.131 15.4748 37.131 13.7022C37.131 11.5075 39.0465 10 41.7663 10C44.4581 10 46.3035 11.5075 46.3656 13.7022H44.4411C44.3259 12.4328 43.275 11.6666 41.7393 11.6666C40.2035 11.6666 39.1526 12.4418 39.1526 13.5702C39.1526 14.4695 39.8239 14.9986 41.4658 15.4037L42.8693 15.7479C45.483 16.3651 46.5689 17.4134 46.5689 19.274C46.5689 21.6538 44.6705 23.1443 41.6511 23.1443C38.826 23.1443 36.9186 21.6888 36.7954 19.388L38.7469 19.3881Z" fill="white"/>
<path d="M50.6833 11.4648V13.6596H52.4495V15.1671H50.6833V20.2797C50.6833 21.074 51.037 21.4441 51.8134 21.4441C52.023 21.4405 52.2324 21.4258 52.4405 21.4001V22.8986C52.0914 22.9637 51.7366 22.9932 51.3816 22.9866C49.5012 22.9866 48.7679 22.2814 48.7679 20.4828V15.1671H47.4175V13.6596H48.7679V11.4648H50.6833Z" fill="white"/>
<path d="M53.4722 18.2965C53.4722 15.3785 55.1932 13.5449 57.8771 13.5449C60.5699 13.5449 62.283 15.3785 62.283 18.2965C62.283 21.2224 60.5789 23.048 57.8771 23.048C55.1762 23.048 53.4722 21.2224 53.4722 18.2965ZM60.3405 18.2965C60.3405 16.2948 59.4218 15.1134 57.8771 15.1134C56.3323 15.1134 55.4146 16.3038 55.4146 18.2965C55.4146 20.3061 56.3323 21.4785 57.8771 21.4785C59.4218 21.4785 60.3404 20.3061 60.3404 18.2965H60.3405Z" fill="white"/>
<path d="M63.8545 13.6573H65.6728V15.2358H65.7169C65.8399 14.7428 66.1291 14.3071 66.536 14.0019C66.9428 13.6968 67.4424 13.5408 67.9509 13.5602C68.1706 13.5594 68.3897 13.5833 68.604 13.6312V15.4118C68.3267 15.3272 68.0374 15.2883 67.7475 15.2968C67.4705 15.2856 67.1944 15.3343 66.9381 15.4397C66.6818 15.5451 66.4514 15.7046 66.2627 15.9073C66.0739 16.11 65.9314 16.3511 65.8448 16.614C65.7582 16.877 65.7295 17.1555 65.7609 17.4305V22.9313H63.8545L63.8545 13.6573Z" fill="white"/>
<path d="M77.3936 20.2091C77.1372 21.8927 75.4952 23.048 73.3945 23.048C70.6926 23.048 69.0156 21.2404 69.0156 18.3405C69.0156 15.4315 70.7016 13.5449 73.3143 13.5449C75.8839 13.5449 77.4998 15.3075 77.4998 18.1194V18.7716H70.9401V18.8867C70.9098 19.228 70.9526 19.5718 71.0656 19.8953C71.1786 20.2189 71.3593 20.5147 71.5956 20.7631C71.8319 21.0116 72.1185 21.207 72.4362 21.3364C72.754 21.4657 73.0956 21.5261 73.4386 21.5135C73.8891 21.5557 74.3412 21.4515 74.7276 21.2165C75.1141 20.9814 75.4142 20.6281 75.5834 20.2091L77.3936 20.2091ZM70.9491 17.4412H75.5924C75.6095 17.1343 75.5629 16.8272 75.4555 16.5392C75.3482 16.2511 75.1823 15.9883 74.9684 15.7673C74.7545 15.5463 74.4971 15.3718 74.2125 15.2548C73.9279 15.1378 73.6221 15.0808 73.3143 15.0874C73.0039 15.0856 72.6961 15.1451 72.4089 15.2627C72.1216 15.3802 71.8605 15.5534 71.6406 15.7722C71.4207 15.9911 71.2463 16.2512 71.1277 16.5377C71.009 16.8241 70.9483 17.1312 70.9491 17.4412V17.4412Z" fill="white"/>
</svg>
