<svg width="38" height="40" viewBox="0 0 38 40" fill="none" xmlns="http://www.w3.org/2000/svg">
<g clip-path="url(#clip0_4822_3066)">
<path d="M27.8468 10.2361C23.8242 12.3611 20.7218 15.8056 19.2078 19.9305C17.7531 15.875 14.7695 12.4722 10.8953 10.3056C12.2906 5.94444 15.3929 2.29167 19.4898 0C23.4679 2.30556 26.496 5.93055 27.8468 10.2361Z" fill="url(#paint0_linear_4822_3066)"/>
<path d="M37.9259 15.9852C36.7384 23.2769 30.7712 29.1102 23.0821 30.6519C22.2657 30.8186 21.4345 30.9297 20.5884 30.9991C21.3899 30.5547 22.147 30.0547 22.8595 29.513C27.1048 26.2769 29.8509 21.4019 29.9696 15.9019C31.1868 15.6797 32.4485 15.5547 33.7251 15.5547C35.1649 15.5547 36.5751 15.7075 37.9259 15.9852Z" fill="url(#paint1_linear_4822_3066)"/>
<path d="M28.6335 15.5009C28.6335 15.737 28.6335 15.9592 28.6187 16.1953C28.4257 21.0703 26.1546 25.4592 22.607 28.5981C21.6273 29.4731 20.5437 30.2509 19.371 30.9175C19.3414 30.9314 19.3265 30.9453 19.2968 30.9592C19.2671 30.9731 19.2523 30.987 19.2226 31.0009C19.1335 30.9453 19.0296 30.8898 18.9406 30.8342C18.8812 30.8064 18.8218 30.7648 18.7773 30.737C17.5601 29.987 16.432 29.112 15.4374 28.1259C12.2906 25.0564 10.3015 20.9592 10.0937 16.4175C10.0789 16.1536 10.0789 15.8898 10.0789 15.6398C10.0789 13.9314 10.3312 12.2925 10.8062 10.737C14.7101 13.0703 17.6492 16.6953 18.9109 20.9592C19 21.2509 19.0742 21.5425 19.1484 21.8481C19.1484 21.8481 19.1484 21.8481 19.1484 21.8342C19.2374 21.487 19.3414 21.1259 19.4601 20.7925C20.8554 16.5286 23.9281 12.9453 27.9656 10.6953C28.396 12.2231 28.6335 13.8342 28.6335 15.5009Z" fill="url(#paint2_linear_4822_3066)"/>
<path d="M18.2133 31.0408C17.0555 30.9991 15.9273 30.8602 14.8438 30.6241C7.21406 29.0408 1.30625 23.2214 0.148438 15.9575C1.45469 15.6936 2.80547 15.5547 4.20078 15.5547C5.77422 15.5547 7.30313 15.7352 8.77266 16.0686C8.93594 21.1936 11.3852 25.7769 15.2148 28.9714C16.1203 29.7491 17.1297 30.4436 18.2133 31.0408Z" fill="url(#paint3_linear_4822_3066)"/>
<path d="M1.52891 35.6111H0.148438V35H3.68125V35.6111H2.30078V38.8889H1.52891V35.6111Z" fill="url(#paint4_linear_4822_3066)"/>
<path d="M5.95244 35.8887V36.5553C5.89307 36.5414 5.83369 36.5415 5.77432 36.5415C5.21026 36.5415 4.854 36.847 4.854 37.4581V38.9026H4.11182V35.9303H4.82431V36.3609C5.04697 36.0415 5.43291 35.8887 5.95244 35.8887Z" fill="url(#paint5_linear_4822_3066)"/>
<path d="M9.23271 37.1527V38.8888H8.53506V38.5277C8.35693 38.7777 8.01553 38.9305 7.54053 38.9305C6.81318 38.9305 6.35303 38.5555 6.35303 38.0416C6.35303 37.5416 6.70928 37.1527 7.67412 37.1527H8.49053V37.111C8.49053 36.7082 8.22334 36.4721 7.70381 36.4721C7.34756 36.4721 6.97647 36.5832 6.73897 36.7638L6.44209 36.2638C6.7835 36.0138 7.27334 35.9027 7.79287 35.9027C8.69834 35.8888 9.23271 36.2916 9.23271 37.1527ZM8.49053 37.9721V37.6249H7.71865C7.21396 37.6249 7.08037 37.8055 7.08037 38.0138C7.08037 38.2638 7.30303 38.4305 7.68896 38.4305C8.04521 38.4305 8.35693 38.2777 8.49053 37.9721Z" fill="url(#paint6_linear_4822_3066)"/>
<path d="M13.3149 37.1944V38.9027H12.5727V37.2916C12.5727 36.7638 12.2907 36.5138 11.8157 36.5138C11.2813 36.5138 10.925 36.8194 10.925 37.4027V38.9027H10.1829V35.9305H10.8954V36.3194C11.1329 36.0416 11.5188 35.9027 11.9938 35.9027C12.7508 35.8888 13.3149 36.2916 13.3149 37.1944Z" fill="url(#paint7_linear_4822_3066)"/>
<path d="M17.382 35.9301V39.9857H16.6398V38.5412C16.3875 38.819 16.0312 38.944 15.6305 38.944C14.7102 38.944 14.0273 38.3468 14.0273 37.4162C14.0273 36.4996 14.7102 35.9023 15.6305 35.9023C16.0609 35.9023 16.432 36.0412 16.6844 36.319V35.9301H17.382ZM16.6547 37.4162C16.6547 36.8468 16.2539 36.4857 15.7047 36.4857C15.1703 36.4857 14.7695 36.8468 14.7695 37.4162C14.7695 37.9857 15.1703 38.3468 15.7047 38.3468C16.2539 38.3329 16.6547 37.9718 16.6547 37.4162Z" fill="url(#paint8_linear_4822_3066)"/>
<path d="M21.4344 35.9316V38.9039H20.7219V38.5289C20.4844 38.8066 20.1133 38.9455 19.6977 38.9455C18.8813 38.9455 18.332 38.5289 18.332 37.6261V35.9316H19.0742V37.5289C19.0742 38.0705 19.3414 38.3205 19.8164 38.3205C20.3359 38.3205 20.6773 38.015 20.6773 37.4316V35.9316H21.4344Z" fill="url(#paint9_linear_4822_3066)"/>
<path d="M22.3101 35.0143C22.3101 34.7782 22.5179 34.5977 22.7851 34.5977C23.0522 34.5977 23.2601 34.7643 23.2601 35.0004C23.2601 35.2504 23.0671 35.431 22.7851 35.431C22.5179 35.431 22.3101 35.2504 22.3101 35.0143ZM22.414 35.931H23.1562V38.9032H22.414V35.931Z" fill="url(#paint10_linear_4822_3066)"/>
<path d="M24.136 34.7637H24.8782V38.8887H24.136V34.7637Z" fill="url(#paint11_linear_4822_3066)"/>
<path d="M27.5649 35H28.3368V38.2778H30.5189V38.8889H27.5649V35Z" fill="url(#paint12_linear_4822_3066)"/>
<path d="M30.9492 35.0143C30.9492 34.7782 31.157 34.5977 31.4242 34.5977C31.6914 34.5977 31.8992 34.7643 31.8992 35.0004C31.8992 35.2504 31.7063 35.431 31.4242 35.431C31.157 35.431 30.9492 35.2504 30.9492 35.0143ZM31.0531 35.931H31.7953V38.9032H31.0531V35.931Z" fill="url(#paint13_linear_4822_3066)"/>
<path d="M33.5914 35.7643V35.9449H34.4672V36.5004H33.6211V38.8893H32.8789V36.5004H32.3594V35.9449H32.8789V35.7504C32.8789 35.1254 33.2797 34.7227 34.0219 34.7227C34.2742 34.7227 34.5266 34.7782 34.6898 34.8893L34.482 35.4171C34.3633 35.3477 34.2297 35.2921 34.0664 35.2921C33.7547 35.2921 33.5914 35.4588 33.5914 35.7643Z" fill="url(#paint14_linear_4822_3066)"/>
<path d="M37.8961 37.6385H35.4023C35.4914 38.069 35.8773 38.3468 36.4266 38.3468C36.7828 38.3468 37.0648 38.2357 37.2875 38.0274L37.6883 38.4579C37.4063 38.7773 36.9609 38.944 36.4117 38.944C35.343 38.944 34.6602 38.3051 34.6602 37.4162C34.6602 36.5273 35.3578 35.9023 36.3078 35.9023C37.2281 35.9023 37.9109 36.5135 37.9109 37.444C37.9109 37.4857 37.8961 37.569 37.8961 37.6385ZM35.3875 37.1662H37.1836C37.1242 36.7357 36.768 36.444 36.293 36.444C35.818 36.444 35.4617 36.7357 35.3875 37.1662Z" fill="url(#paint15_linear_4822_3066)"/>
</g>
<defs>
<linearGradient id="paint0_linear_4822_3066" x1="20.1125" y1="30.8442" x2="19.3639" y2="7.04089" gradientUnits="userSpaceOnUse">
<stop stop-color="#0480BD"/>
<stop offset="1" stop-color="#4BAE52"/>
</linearGradient>
<linearGradient id="paint1_linear_4822_3066" x1="29.5127" y1="30.6866" x2="28.764" y2="6.88326" gradientUnits="userSpaceOnUse">
<stop stop-color="#0480BD"/>
<stop offset="1" stop-color="#4BAE52"/>
</linearGradient>
<linearGradient id="paint2_linear_4822_3066" x1="19.9161" y1="30.9823" x2="19.1675" y2="7.17894" gradientUnits="userSpaceOnUse">
<stop stop-color="#0480BD"/>
<stop offset="1" stop-color="#4BAE52"/>
</linearGradient>
<linearGradient id="paint3_linear_4822_3066" x1="9.45575" y1="31.3133" x2="8.70711" y2="7.51" gradientUnits="userSpaceOnUse">
<stop stop-color="#0480BD"/>
<stop offset="1" stop-color="#4BAE52"/>
</linearGradient>
<linearGradient id="paint4_linear_4822_3066" x1="1.92161" y1="38.8959" x2="1.92161" y2="35.0017" gradientUnits="userSpaceOnUse">
<stop stop-color="#0480BD"/>
<stop offset="1" stop-color="#4BAE52"/>
</linearGradient>
<linearGradient id="paint5_linear_4822_3066" x1="5.04078" y1="38.8957" x2="5.04078" y2="35.8916" gradientUnits="userSpaceOnUse">
<stop stop-color="#0480BD"/>
<stop offset="1" stop-color="#4BAE52"/>
</linearGradient>
<linearGradient id="paint6_linear_4822_3066" x1="7.78791" y1="38.9347" x2="7.78791" y2="35.8918" gradientUnits="userSpaceOnUse">
<stop stop-color="#0480BD"/>
<stop offset="1" stop-color="#4BAE52"/>
</linearGradient>
<linearGradient id="paint7_linear_4822_3066" x1="11.7454" y1="38.8958" x2="11.7454" y2="35.8918" gradientUnits="userSpaceOnUse">
<stop stop-color="#0480BD"/>
<stop offset="1" stop-color="#4BAE52"/>
</linearGradient>
<linearGradient id="paint8_linear_4822_3066" x1="15.7058" y1="39.9747" x2="15.7058" y2="35.8914" gradientUnits="userSpaceOnUse">
<stop stop-color="#0480BD"/>
<stop offset="1" stop-color="#4BAE52"/>
</linearGradient>
<linearGradient id="paint9_linear_4822_3066" x1="19.8891" y1="38.9359" x2="19.8891" y2="35.9263" gradientUnits="userSpaceOnUse">
<stop stop-color="#0480BD"/>
<stop offset="1" stop-color="#4BAE52"/>
</linearGradient>
<linearGradient id="paint10_linear_4822_3066" x1="22.7882" y1="38.8963" x2="22.7882" y2="34.6016" gradientUnits="userSpaceOnUse">
<stop stop-color="#0480BD"/>
<stop offset="1" stop-color="#4BAE52"/>
</linearGradient>
<linearGradient id="paint11_linear_4822_3066" x1="24.5038" y1="38.8957" x2="24.5038" y2="34.7678" gradientUnits="userSpaceOnUse">
<stop stop-color="#0480BD"/>
<stop offset="1" stop-color="#4BAE52"/>
</linearGradient>
<linearGradient id="paint12_linear_4822_3066" x1="29.0378" y1="38.8959" x2="29.0378" y2="35.0017" gradientUnits="userSpaceOnUse">
<stop stop-color="#0480BD"/>
<stop offset="1" stop-color="#4BAE52"/>
</linearGradient>
<linearGradient id="paint13_linear_4822_3066" x1="31.4284" y1="38.8963" x2="31.4284" y2="34.6016" gradientUnits="userSpaceOnUse">
<stop stop-color="#0480BD"/>
<stop offset="1" stop-color="#4BAE52"/>
</linearGradient>
<linearGradient id="paint14_linear_4822_3066" x1="33.5155" y1="38.8963" x2="33.5155" y2="34.7295" gradientUnits="userSpaceOnUse">
<stop stop-color="#0480BD"/>
<stop offset="1" stop-color="#4BAE52"/>
</linearGradient>
<linearGradient id="paint15_linear_4822_3066" x1="36.2805" y1="38.9344" x2="36.2805" y2="35.8914" gradientUnits="userSpaceOnUse">
<stop stop-color="#0480BD"/>
<stop offset="1" stop-color="#4BAE52"/>
</linearGradient>
<clipPath id="clip0_4822_3066">
<rect width="38" height="40" fill="white"/>
</clipPath>
</defs>
</svg>
