<svg width="22" height="24" viewBox="0 0 22 24" fill="none" xmlns="http://www.w3.org/2000/svg">
<path d="M10.2716 11.4618L0.09375 22.0059C0.0941324 22.008 0.0948971 22.0099 0.0952795 22.0121C0.407408 23.1569 1.47878 24 2.75033 24C3.25863 24 3.73586 23.8659 4.14512 23.6304L4.17762 23.6118L15.6341 17.1592L10.2716 11.4618Z" fill="#EB3131"/>
<path d="M20.5682 9.66645L20.5584 9.65991L15.6124 6.86127L10.04 11.7011L15.6318 17.1582L20.5518 14.3874C21.4143 13.9329 21.9999 13.0453 21.9999 12.0218C21.9999 11.0056 21.4222 10.1225 20.5682 9.66645Z" fill="#F6B60B"/>
<path d="M0.0933425 1.99377C0.0321595 2.21398 0 2.44464 0 2.68417V21.3159C0 21.555 0.0317769 21.7864 0.0937247 22.0059L10.6219 11.7316L0.0933425 1.99377Z" fill="#5778C5"/>
<path d="M10.3461 12L15.6141 6.85956L4.17062 0.383667C3.75467 0.140502 3.26922 0.000164986 2.74974 0.000164986C1.47819 0.000164986 0.40538 0.844712 0.0931556 1.99102C0.0927732 1.99214 0.0927734 1.99289 0.0927734 1.99392L10.3461 12Z" fill="#3BAD49"/>
</svg>
