<svg width="84" height="28" viewBox="0 0 84 28" fill="none" xmlns="http://www.w3.org/2000/svg">
<path d="M6.31799 3.93915C6.31799 4.76742 6.07216 5.42703 5.57981 5.91907C5.02057 6.50414 4.29171 6.79688 3.39569 6.79688C2.53761 6.79688 1.80806 6.50029 1.2081 5.90632C0.607053 5.31275 0.307129 4.57671 0.307129 3.69852C0.307129 2.81992 0.607053 2.08428 1.2081 1.49032C1.80806 0.896743 2.53761 0.59976 3.39569 0.59976C3.82145 0.59976 4.22909 0.682804 4.61611 0.848498C5.00313 1.01459 5.31356 1.23505 5.54582 1.51118L5.02325 2.03288C4.62968 1.56367 4.08779 1.32927 3.39569 1.32927C2.76987 1.32927 2.22877 1.54865 1.77209 1.98769C1.31531 2.42724 1.08702 2.99718 1.08702 3.69852C1.08702 4.39985 1.31531 4.96979 1.77209 5.40934C2.22877 5.84838 2.76987 6.06776 3.39569 6.06776C4.05955 6.06776 4.61304 5.8472 5.05614 5.40548C5.34378 5.11769 5.51015 4.71769 5.55464 4.204H3.39569V3.4915H6.27657C6.30441 3.64641 6.31799 3.7951 6.31799 3.93915Z" fill="white"/>
<path d="M6.31844 3.93794H6.21935C6.21856 4.74733 5.98164 5.376 5.5102 5.84797L5.50911 5.84876L5.50872 5.84955C4.96722 6.41445 4.27125 6.69562 3.39614 6.6968C2.56095 6.69562 1.86191 6.41139 1.27821 5.83522C0.69579 5.25786 0.407756 4.55306 0.406666 3.69731C0.407756 2.84116 0.69579 2.13676 1.27821 1.5598C1.86191 0.983228 2.56095 0.698603 3.39614 0.697416C3.80912 0.697416 4.20239 0.777791 4.57742 0.938047C4.95285 1.09949 5.24941 1.31106 5.47037 1.57373L5.54627 1.50997L5.47622 1.44007L4.95364 1.96217L5.0237 2.03167L5.1 1.9684C4.6881 1.47596 4.10994 1.22772 3.39614 1.2292C2.74713 1.22841 2.17621 1.45975 1.70397 1.9155C1.22718 2.37274 0.987595 2.97472 0.988388 3.69731C0.987595 4.4199 1.22718 5.02187 1.70397 5.47911C2.17621 5.93487 2.74713 6.16621 3.39614 6.16542C4.082 6.1666 4.6665 5.93447 5.12665 5.47417C5.43401 5.1667 5.6082 4.74081 5.65387 4.2113L5.66309 4.10393H3.49522V3.58915H6.27702V3.49029L6.17942 3.50769C6.20657 3.65757 6.21935 3.80003 6.21935 3.93794H6.31844H6.41752C6.41752 3.78767 6.40355 3.63324 6.37452 3.47259L6.35985 3.39143H3.29705V4.20279V4.30166H5.55509V4.20279L5.4564 4.19429C5.4127 4.69177 5.25397 5.06636 4.98654 5.33438C4.56078 5.75761 4.0383 5.9665 3.39614 5.96769C2.79351 5.9669 2.28223 5.75988 1.84141 5.33705C1.40484 4.91569 1.18765 4.37778 1.18656 3.69731C1.18765 3.01684 1.40484 2.47892 1.84141 2.05757C2.28223 1.63473 2.79351 1.42772 3.39614 1.42692C4.06615 1.42851 4.57207 1.64937 4.9479 2.09543L5.01755 2.17808L5.61632 1.57986L5.68053 1.5158L5.62207 1.4466C5.37862 1.15703 5.05431 0.927173 4.6556 0.756536C4.25619 0.585404 3.83468 0.499691 3.39614 0.499691C2.51528 0.4989 1.7551 0.807846 1.1385 1.41921C0.519621 2.02939 0.207705 2.79637 0.208498 3.69731C0.207705 4.59785 0.519618 5.36522 1.1389 5.9758C1.7551 6.58677 2.51528 6.89532 3.39614 6.89453C4.31346 6.89532 5.07443 6.59132 5.65189 5.98618L5.58026 5.91786L5.65031 5.98776C6.16356 5.47605 6.41821 4.7848 6.41752 3.93794H6.31844Z" fill="white"/>
<path d="M10.8857 1.46101H8.17829V3.34178H10.6198V4.05458H8.17829V5.93534H10.8857V6.66406H7.41504V0.732293H10.8857V1.46101Z" fill="white"/>
<path d="M10.8861 1.46176V1.3629H8.07965V3.44139H10.5212V3.95617L8.07965 3.95646V6.03495H10.787V6.56595H7.51457V0.831905H10.787V1.46176H10.8861V1.3629V1.46176H10.9852V0.733042V0.63418H7.31641V6.76367H10.9852V5.93609V5.83723H8.27782V4.15419H10.7194V3.34252V3.24366H8.27782V1.56062H10.9852V1.46176H10.8861Z" fill="white"/>
<path d="M14.1075 6.66406H13.3431V1.46101H11.6826V0.732293H15.768V1.46101H14.1075V6.66406Z" fill="white"/>
<path d="M14.1065 6.66481V6.56595H13.4411V1.3629H11.7807V0.831905H15.6679V1.3629H14.0074V6.66481H14.1065V6.56595V6.66481H14.2056V1.56062H15.866V0.733042V0.63418H11.5825V1.46176V1.56062H13.243V6.76367H14.1065H14.2056V6.66481H14.1065Z" fill="white"/>
<path d="M18.7227 6.66406V0.732293H19.4863V6.66406H18.7227Z" fill="white"/>
<path d="M18.7226 6.66481H18.8217V0.831905H19.3872V6.56595H18.7226V6.66481H18.8217H18.7226V6.76367H19.4863H19.5853V0.63418H18.7226H18.6235V6.76367H18.7226V6.66481Z" fill="white"/>
<path d="M22.876 6.66406H22.1115V1.46101H20.4512V0.732293H24.5364V1.46101H22.876V6.66406Z" fill="white"/>
<path d="M22.8749 6.66481V6.56595H22.2096V1.3629H20.5492V0.831905H24.4363V1.3629H22.7759V6.66481H22.8749V6.56595V6.66481H22.974V1.56062H24.6345V0.733042V0.63418H20.3511V1.46176V1.56062H22.0114V6.76367H22.8749H22.974V6.66481H22.8749Z" fill="white"/>
<path d="M28.474 5.40123C28.914 5.84572 29.4524 6.06776 30.0891 6.06776C30.7259 6.06776 31.2646 5.84572 31.7039 5.40123C32.1443 4.95674 32.365 4.38858 32.365 3.69852C32.365 3.00845 32.1443 2.44029 31.7039 1.9958C31.2646 1.55131 30.7259 1.32927 30.0891 1.32927C29.4524 1.32927 28.914 1.55131 28.474 1.9958C28.0346 2.44029 27.8141 3.00845 27.8141 3.69852C27.8141 4.38858 28.0346 4.95674 28.474 5.40123ZM32.269 5.89782C31.6845 6.49752 30.9576 6.79688 30.0891 6.79688C29.2198 6.79688 28.4933 6.49752 27.9101 5.89782C27.3252 5.29881 27.0342 4.56554 27.0342 3.69852C27.0342 2.83149 27.3252 2.09812 27.9101 1.49921C28.4933 0.899412 29.2198 0.59976 30.0891 0.59976C30.9531 0.59976 31.678 0.900994 32.2651 1.50307C32.8515 2.10514 33.1449 2.83693 33.1449 3.69852C33.1449 4.56554 32.8522 5.29881 32.269 5.89782Z" fill="white"/>
<path d="M28.4739 5.40002L28.4035 5.46952C28.8599 5.9318 29.4292 6.1666 30.0891 6.16542C30.7486 6.1666 31.3187 5.9318 31.7743 5.46952C32.2337 5.00684 32.4648 4.40823 32.4641 3.69731C32.4648 2.98639 32.2337 2.38777 31.7743 1.92509C31.3187 1.46281 30.7486 1.22801 30.0891 1.2292C29.4292 1.22801 28.8599 1.46281 28.4035 1.92509C27.9452 2.38777 27.7138 2.98639 27.7149 3.69731C27.7138 4.40823 27.9452 5.00684 28.4035 5.46952L28.4739 5.40002L28.5444 5.33052C28.1241 4.90373 27.9139 4.36691 27.9131 3.69731C27.9139 3.02771 28.1241 2.49089 28.5444 2.0641C28.9686 1.6374 29.4752 1.42811 30.0891 1.42692C30.7025 1.42811 31.2103 1.6374 31.6334 2.0641C32.0545 2.49089 32.2647 3.02771 32.2655 3.69731C32.2647 4.36691 32.0545 4.90373 31.6334 5.33052C31.2103 5.75721 30.7025 5.9665 30.0891 5.96769C29.4752 5.9665 28.9686 5.75721 28.5444 5.33052L28.4739 5.40002ZM32.269 5.89661L32.1981 5.8279C31.63 6.40872 30.9352 6.69562 30.0891 6.6968C29.2426 6.69562 28.5479 6.40872 27.9808 5.8279L27.9781 5.82483L27.9808 5.8279C27.4138 5.2451 27.134 4.54229 27.1332 3.69731C27.134 2.85233 27.4138 2.14951 27.9808 1.56672C28.5479 0.985897 29.2426 0.698602 30.0891 0.697415C30.9297 0.698602 31.6229 0.987083 32.1943 1.57097C32.7632 2.15643 33.0446 2.85816 33.0458 3.69731C33.0446 4.54229 32.764 5.2451 32.1981 5.8279L32.269 5.89661L32.3402 5.96532C32.9409 5.3498 33.2446 4.58628 33.244 3.69731C33.2446 2.81338 32.9397 2.05144 32.3362 1.43315C31.7325 0.81249 30.9762 0.498602 30.0891 0.49969C29.1973 0.498602 28.4388 0.811007 27.8388 1.4293V1.4289C27.237 2.04482 26.9343 2.80833 26.9351 3.69731C26.9343 4.58628 27.237 5.3498 27.8388 5.96571L27.8415 5.96848L27.8388 5.96532C28.4388 6.58361 29.1973 6.89532 30.0891 6.89453C30.9805 6.89532 31.7391 6.58361 32.3402 5.96532L32.269 5.89661Z" fill="white"/>
<path d="M34.2173 6.66406V0.732293H35.147L38.0363 5.34681H38.0692L38.0363 4.20366V0.732293H38.8007V6.66406H38.0034L34.9805 1.82591H34.9476L34.9805 2.96946V6.66406H34.2173Z" fill="white"/>
<path d="M34.2172 6.66481H34.3163V0.831905H35.092L37.9813 5.44642H38.0691H38.1709L38.1353 4.20293V0.831905H38.7016V6.56595H38.0583L35.0355 1.7278H34.9476H34.8458L34.8814 2.97179V6.56595H34.2172V6.66481H34.3163H34.2172V6.76367H34.9805H35.0796V2.96863L35.0467 1.82399L34.9476 1.82666V1.92553H34.9805V1.82666L34.8965 1.87926L37.9484 6.76367H38.8007H38.8998V0.63418H38.0362H37.9372V4.2056L37.9701 5.35023L38.0691 5.34756V5.2487H38.0362V5.34756L38.1203 5.29506L35.2018 0.63418H34.2172H34.1182V6.76367H34.2172V6.66481Z" fill="white"/>
<path d="M65.2909 23.4702H67.1398V11.1111H65.2909V23.4702ZM81.944 15.5631L79.8246 20.9214H79.7612L77.5615 15.5631H75.5699L78.8684 23.0523L76.9878 27.218H78.917L84 15.5631H81.944ZM71.4589 22.0664C70.8525 22.0664 70.0083 21.7644 70.0083 21.0168C70.0083 20.0628 71.0606 19.6972 71.9682 19.6972C72.7817 19.6972 73.1631 19.872 73.6576 20.1108C73.5139 21.2554 72.526 22.0664 71.4589 22.0664ZM71.6818 15.2927C70.3432 15.2927 68.957 15.8812 68.3833 17.1851L70.0241 17.8686C70.3749 17.1851 71.0279 16.9622 71.7135 16.9622C72.6697 16.9622 73.6417 17.5349 73.6576 18.5525V18.6796C73.3227 18.4888 72.6063 18.2026 71.7294 18.2026C69.9607 18.2026 68.1594 19.1723 68.1594 20.985C68.1594 22.6387 69.61 23.7042 71.2349 23.7042C72.4785 23.7042 73.1631 23.1477 73.5942 22.4959H73.6576V23.4497H75.4421V18.7112C75.4421 16.5173 73.8012 15.2927 71.6818 15.2927ZM60.2554 17.0676H57.6257V12.8312H60.2554C61.6376 12.8312 62.4224 13.9731 62.4224 14.9494C62.4224 15.9072 61.6376 17.0676 60.2554 17.0676ZM60.2079 11.1111H55.7778V23.4702H57.6257V18.7877H60.2079C62.2569 18.7877 64.2713 17.3074 64.2713 14.9494C64.2713 12.5914 62.2569 11.1111 60.2079 11.1111ZM36.0501 22.0687C34.7728 22.0687 33.7034 21.0017 33.7034 19.5361C33.7034 18.0551 34.7728 16.9719 36.0501 16.9719C37.3111 16.9719 38.3008 18.0551 38.3008 19.5361C38.3008 21.0017 37.3111 22.0687 36.0501 22.0687ZM38.1731 16.2551H38.1091C37.6943 15.7615 36.8958 15.3156 35.8903 15.3156C33.7831 15.3156 31.8518 17.163 31.8518 19.5361C31.8518 21.8934 33.7831 23.725 35.8903 23.725C36.8958 23.725 37.6943 23.279 38.1091 22.7696H38.1731V23.3748C38.1731 24.9836 37.3111 25.8437 35.9224 25.8437C34.789 25.8437 34.0866 25.0311 33.799 24.3464L32.187 25.0153C32.6499 26.1302 33.8791 27.5 35.9224 27.5C38.0933 27.5 39.929 26.2256 39.929 23.1199V15.5704H38.1731V16.2551ZM41.2059 23.4702H43.0576V11.1107H41.2059V23.4702ZM45.7874 19.3929C45.7394 17.7681 47.0484 16.9402 47.9901 16.9402C48.725 16.9402 49.3472 17.3063 49.5543 17.8323L45.7874 19.3929ZM51.534 17.9914C51.1832 17.0514 50.1131 15.3156 47.9262 15.3156C45.7553 15.3156 43.9517 17.0198 43.9517 19.5203C43.9517 21.8776 45.7394 23.725 48.1337 23.725C50.0656 23.725 51.1832 22.5464 51.646 21.8617L50.2092 20.9059C49.7307 21.6068 49.0757 22.0687 48.1337 22.0687C47.192 22.0687 46.5217 21.6385 46.0905 20.7946L51.7252 18.4691L51.534 17.9914ZM6.64064 16.6057V18.3895H10.9186C10.7909 19.3929 10.4557 20.1254 9.9448 20.6352C9.32245 21.2565 8.34865 21.9412 6.64064 21.9412C4.00667 21.9412 1.9476 19.823 1.9476 17.195C1.9476 14.5671 4.00667 12.4485 6.64064 12.4485C8.06141 12.4485 9.09872 13.0061 9.86504 13.7229L11.1261 12.4647C10.0567 11.4452 8.6358 10.6648 6.64064 10.6648C3.03287 10.6648 0 13.5954 0 17.195C0 20.7946 3.03287 23.725 6.64064 23.725C8.58824 23.725 10.0567 23.0882 11.2059 21.8934C12.3871 20.7147 12.7544 19.0584 12.7544 17.7207C12.7544 17.3063 12.7226 16.9244 12.6584 16.6057H6.64064ZM17.6181 22.0687C16.3408 22.0687 15.2393 21.0175 15.2393 19.5203C15.2393 18.0072 16.3408 16.9719 17.6181 16.9719C18.8949 16.9719 19.9964 18.0072 19.9964 19.5203C19.9964 21.0175 18.8949 22.0687 17.6181 22.0687ZM17.6181 15.3156C15.2872 15.3156 13.3876 17.0834 13.3876 19.5203C13.3876 21.9412 15.2872 23.725 17.6181 23.725C19.9485 23.725 21.8481 21.9412 21.8481 19.5203C21.8481 17.0834 19.9485 15.3156 17.6181 15.3156ZM26.846 22.0687C25.5692 22.0687 24.4676 21.0175 24.4676 19.5203C24.4676 18.0072 25.5692 16.9719 26.846 16.9719C28.1229 16.9719 29.2244 18.0072 29.2244 19.5203C29.2244 21.0175 28.1229 22.0687 26.846 22.0687ZM26.846 15.3156C24.5153 15.3156 22.616 17.0834 22.616 19.5203C22.616 21.9412 24.5153 23.725 26.846 23.725C29.1765 23.725 31.0761 21.9412 31.0761 19.5203C31.0761 17.0834 29.1765 15.3156 26.846 15.3156Z" fill="white"/>
</svg>
