<svg width="712" height="1117" viewBox="0 0 712 1117" fill="none" xmlns="http://www.w3.org/2000/svg">
<path d="M932.635 368.335C797.189 444.801 692.73 568.745 641.75 717.179C592.769 571.244 492.308 448.799 361.86 370.834C408.841 213.904 513.3 82.4631 651.246 0C785.193 82.9629 887.153 213.404 932.635 368.335Z" fill="url(#paint0_linear_3775_17696)"/>
<path d="M1272 575.243C1232.02 837.626 1031.09 1047.53 772.196 1103.01C744.707 1109 716.718 1113 688.229 1115.5C715.219 1099.51 740.709 1081.52 764.699 1062.03C907.643 945.577 1000.11 770.156 1004.11 572.244C1045.09 564.248 1087.57 559.75 1130.56 559.75C1179.04 559.75 1226.52 565.248 1272 575.243Z" fill="url(#paint1_linear_3775_17696)"/>
<path d="M959.125 557.751C959.125 566.247 959.125 574.243 958.625 582.74C952.127 758.161 875.657 916.09 756.204 1029.04C723.217 1060.53 686.732 1088.51 647.247 1112.5C646.248 1113 645.748 1113.5 644.748 1114C643.749 1114.5 643.249 1115 642.249 1115.5C639.25 1113.5 635.752 1111.5 632.753 1109.5C630.754 1108.5 628.755 1107.01 627.255 1106.01C586.271 1079.02 548.286 1047.53 514.799 1012.05C408.841 901.597 341.867 754.163 334.87 590.736C334.37 581.24 334.37 571.744 334.37 562.749C334.37 501.276 342.867 442.302 358.861 386.327C490.309 470.29 589.27 600.731 631.754 754.163C634.752 764.658 637.251 775.154 639.75 786.149C639.75 786.149 639.75 786.148 639.75 785.649C642.749 773.154 646.248 760.16 650.246 748.165C697.228 594.734 800.687 465.792 936.634 384.828C951.128 439.804 959.125 497.778 959.125 557.751Z" fill="url(#paint2_linear_3775_17696)"/>
<path d="M608.261 1117C569.276 1115.5 531.291 1110.5 494.806 1102.01C237.906 1045.03 38.9847 835.627 0 574.243C43.9827 564.748 89.4649 559.75 136.446 559.75C189.426 559.75 240.905 566.247 290.386 578.242C295.884 762.659 378.351 927.585 507.301 1042.53C537.789 1070.52 571.775 1095.51 608.261 1117Z" fill="url(#paint3_linear_3775_17696)"/>
<defs>
<linearGradient id="paint0_linear_3775_17696" x1="672.214" y1="1109.9" x2="643.428" y2="253.479" gradientUnits="userSpaceOnUse">
<stop stop-color="#0480BD"/>
<stop offset="1" stop-color="#4BAE52"/>
</linearGradient>
<linearGradient id="paint1_linear_3775_17696" x1="988.72" y1="1104.26" x2="959.934" y2="247.839" gradientUnits="userSpaceOnUse">
<stop stop-color="#0480BD"/>
<stop offset="1" stop-color="#4BAE52"/>
</linearGradient>
<linearGradient id="paint2_linear_3775_17696" x1="665.6" y1="1114.83" x2="636.815" y2="258.416" gradientUnits="userSpaceOnUse">
<stop stop-color="#0480BD"/>
<stop offset="1" stop-color="#4BAE52"/>
</linearGradient>
<linearGradient id="paint3_linear_3775_17696" x1="313.386" y1="1126.81" x2="284.601" y2="270.391" gradientUnits="userSpaceOnUse">
<stop stop-color="#0480BD"/>
<stop offset="1" stop-color="#4BAE52"/>
</linearGradient>
</defs>
</svg>
