<svg xmlns="http://www.w3.org/2000/svg" width="62.217" height="67.307" viewBox="0 0 62.217 67.307">
  <g id="Icon_ionic-ios-chatbubbles" data-name="Icon ionic-ios-chatbubbles" transform="matrix(0.985, -0.174, 0.174, 0.985, -7.196, 7.351)">
    <path id="Path_2" data-name="Path 2" d="M52.13,41.448a3.384,3.384,0,0,1,.461-1.7,4.7,4.7,0,0,1,.293-.433A22.63,22.63,0,0,0,56.739,26.7c.042-12.877-10.824-23.324-24.26-23.324-11.718,0-21.495,7.975-23.785,18.562a22.444,22.444,0,0,0-.517,4.777A23.692,23.692,0,0,0,32.06,50.331a28.763,28.763,0,0,0,6.592-1.075c1.578-.433,3.142-1.006,3.548-1.159a3.693,3.693,0,0,1,1.3-.237,3.631,3.631,0,0,1,1.411.279l7.919,2.807a1.889,1.889,0,0,0,.545.14,1.112,1.112,0,0,0,1.117-1.117,1.794,1.794,0,0,0-.07-.377Z" transform="translate(4.737 0)" fill="#fff"/>
    <path id="Path_3" data-name="Path 3" d="M41.155,42.092c-.5.14-1.145.293-1.844.447a25.777,25.777,0,0,1-4.749.628A23.692,23.692,0,0,1,10.68,19.55a26.405,26.405,0,0,1,.209-2.989c.084-.6.182-1.2.321-1.788.14-.628.307-1.257.489-1.872l-1.117.992A20.785,20.785,0,0,0,3.375,29.523,20.553,20.553,0,0,0,6.839,40.975c.321.489.5.866.447,1.117s-1.662,8.659-1.662,8.659A1.12,1.12,0,0,0,6,51.827a1.138,1.138,0,0,0,.712.251,1,1,0,0,0,.405-.084l7.835-3.087a2.183,2.183,0,0,1,1.676.028,23.506,23.506,0,0,0,8.478,1.676,21.935,21.935,0,0,0,16.774-7.7s.447-.615.964-1.341C42.328,41.757,41.741,41.939,41.155,42.092Z" transform="translate(0 9.397)" fill="#fff"/>
  </g>
</svg>
