<svg xmlns="http://www.w3.org/2000/svg" width="18" height="18.004" viewBox="0 0 18 18.004">
  <g id="Icon_ionic-ios-timer" data-name="Icon ionic-ios-timer" transform="translate(-3.938 -3.938)">
    <path id="Path_11" data-name="Path 11" d="M12.94,21.942A9,9,0,0,1,6.692,6.458a.723.723,0,0,1,1,1.04,7.555,7.555,0,1,0,5.964-2.08V8.236a.725.725,0,1,1-1.449,0V4.662a.724.724,0,0,1,.725-.725,9,9,0,0,1,0,18Z" transform="translate(0 0)" fill="#fff"/>
    <path id="Path_12" data-name="Path 12" d="M12.368,11.384l7,5.027A2.117,2.117,0,0,1,16.9,19.856a2.044,2.044,0,0,1-.492-.492l-5.027-7a.705.705,0,0,1,.984-.984Z" transform="translate(-3.871 -3.87)" fill="#fff"/>
  </g>
</svg>
