<svg xmlns="http://www.w3.org/2000/svg" width="54.766" height="40.017" viewBox="0 0 54.766 40.017">
  <path id="Icon_material-people" data-name="Icon material-people" d="M35.591,21.136a6.818,6.818,0,1,0-6.818-6.818A6.79,6.79,0,0,0,35.591,21.136Zm-18.182,0a6.818,6.818,0,1,0-6.818-6.818A6.79,6.79,0,0,0,17.409,21.136Zm0,4.545c-5.3,0-15.909,2.659-15.909,7.955v5.682H33.318V33.636C33.318,28.341,22.7,25.682,17.409,25.682Zm18.182,0c-.659,0-1.409.045-2.2.114,2.636,1.909,4.477,4.477,4.477,7.841v5.682H51.5V33.636C51.5,28.341,40.886,25.682,35.591,25.682Z" transform="matrix(0.985, -0.174, 0.174, 0.985, -2.78, 1.557)" fill="#fff"/>
</svg>
