<svg xmlns="http://www.w3.org/2000/svg" width="31.18" height="35.634" viewBox="0 0 31.18 35.634">
  <path id="Icon_awesome-bell" data-name="Icon awesome-bell" d="M15.59,35.634a4.454,4.454,0,0,0,4.452-4.454h-8.9A4.454,4.454,0,0,0,15.59,35.634Zm14.991-10.42C29.236,23.77,26.72,21.6,26.72,14.476a10.991,10.991,0,0,0-8.9-10.8V2.227a2.226,2.226,0,1,0-4.452,0v1.45a10.991,10.991,0,0,0-8.9,10.8C4.46,21.6,1.944,23.77.6,25.215A2.175,2.175,0,0,0,0,26.726a2.229,2.229,0,0,0,2.234,2.227H28.946a2.229,2.229,0,0,0,2.234-2.227A2.173,2.173,0,0,0,30.581,25.215Z" transform="translate(0)" fill="#fff"/>
</svg>
